<svg version="1.1" viewBox="0.0 0.0 585.0 148.0" fill="none" stroke="none" stroke-linecap="square" stroke-miterlimit="10" width="585" height="148" xmlns:xlink="http://www.w3.org/1999/xlink" xmlns="http://www.w3.org/2000/svg"><path fill="#ffffff" d="M0 0L585.0 0L585.0 148.0L0 148.0L0 0Z" fill-rule="nonzero"/><path stroke="#333333" stroke-width="1.0" stroke-linecap="butt" d="M47.5 50.5L47.5 120.5" fill-rule="nonzero"/><path stroke="#cccccc" stroke-width="1.0" stroke-linecap="butt" d="M153.5 50.5L153.5 120.5" fill-rule="nonzero"/><path stroke="#cccccc" stroke-width="1.0" stroke-linecap="butt" d="M259.5 50.5L259.5 120.5" fill-rule="nonzero"/><path stroke="#cccccc" stroke-width="1.0" stroke-linecap="butt" d="M365.5 50.5L365.5 120.5" fill-rule="nonzero"/><path stroke="#cccccc" stroke-width="1.0" stroke-linecap="butt" d="M471.5 50.5L471.5 120.5" fill-rule="nonzero"/><path stroke="#cccccc" stroke-width="1.0" stroke-linecap="butt" d="M577.5 50.5L577.5 120.5" fill-rule="nonzero"/><clipPath id="id_0"><path d="M47.4 50.266666L577.6 50.266666L577.6 120.6L47.4 120.6L47.4 50.266666Z" clip-rule="nonzero"/></clipPath><path stroke="#000000" stroke-width="0.0" stroke-linecap="butt" stroke-opacity="0.0" clip-path="url(#id_0)" d="M47.0 84.0L47.0 68.0L556.0 68.0C557.10455 68.0 558.0 68.89543 558.0 70.0L558.0 82.0C558.0 83.10457 557.10455 84.0 556.0 84.0Z" fill-rule="nonzero"/><path fill="#4285f4" clip-path="url(#id_0)" d="M47.0 84.0L47.0 68.0L556.0 68.0C557.10455 68.0 558.0 68.89543 558.0 70.0L558.0 82.0C558.0 83.10457 557.10455 84.0 556.0 84.0Z" fill-rule="nonzero"/><path stroke="#000000" stroke-width="0.0" stroke-linecap="butt" stroke-opacity="0.0" clip-path="url(#id_0)" d="M47.0 101.0L47.0 85.0L78.0 85.0C79.10457 85.0 80.0 85.89543 80.0 87.0L80.0 99.0C80.0 100.10457 79.10457 101.0 78.0 101.0Z" fill-rule="nonzero"/><path fill="#ea4335" clip-path="url(#id_0)" d="M47.0 101.0L47.0 85.0L78.0 85.0C79.10457 85.0 80.0 85.89543 80.0 87.0L80.0 99.0C80.0 100.10457 79.10457 101.0 78.0 101.0Z" fill-rule="nonzero"/><path fill="#000000" d="M8.196875 82.058334L8.196875 80.839584L9.259375 80.839584L9.259375 82.058334L8.196875 82.058334ZM8.196875 89.433334L8.196875 83.214584L9.259375 83.214584L9.259375 89.433334L8.196875 89.433334ZM13.49375 88.495834L13.65 89.41771Q13.196875 89.51146 12.853125 89.51146Q12.275 89.51146 11.9625 89.339584Q11.65 89.152084 11.509375 88.85521Q11.384375 88.558334 11.384375 87.60521L11.384375 84.027084L10.61875 84.027084L10.61875 83.214584L11.384375 83.214584L11.384375 81.66771L12.43125 81.04271L12.43125 83.214584L13.49375 83.214584L13.49375 84.027084L12.43125 84.027084L12.43125 87.66771Q12.43125 88.120834 12.478125 88.245834Q12.540625 88.370834 12.665625 88.44896Q12.790625 88.527084 13.025 88.527084Q13.2125 88.527084 13.49375 88.495834ZM18.446875 87.433334L19.540625 87.558334Q19.290625 88.51146 18.5875 89.04271Q17.884375 89.57396 16.80625 89.57396Q15.446875 89.57396 14.634375 88.73021Q13.8375 87.88646 13.8375 86.370834Q13.8375 84.808334 14.65 83.94896Q15.4625 83.07396 16.74375 83.07396Q17.99375 83.07396 18.775 83.91771Q19.571875 84.76146 19.571875 86.308334Q19.571875 86.402084 19.571875 86.589584L14.93125 86.589584Q14.99375 87.620834 15.509375 88.16771Q16.025 88.69896 16.80625 88.69896Q17.384375 88.69896 17.790625 88.402084Q18.2125 88.089584 18.446875 87.433334ZM14.99375 85.73021L18.4625 85.73021Q18.4 84.933334 18.071875 84.54271Q17.55625 83.933334 16.759375 83.933334Q16.025 83.933334 15.525 84.41771Q15.040625 84.902084 14.99375 85.73021ZM21.18125 89.433334L21.18125 83.214584L22.134375 83.214584L22.134375 84.152084Q22.49375 83.495834 22.790625 83.29271Q23.103125 83.07396 23.478125 83.07396Q24.009375 83.07396 24.55625 83.402084L24.196875 84.38646Q23.80625 84.152084 23.43125 84.152084Q23.071875 84.152084 22.790625 84.370834Q22.525 84.57396 22.415625 84.94896Q22.228125 85.51146 22.228125 86.16771L22.228125 89.433334L21.18125 89.433334ZM29.259375 88.66771Q28.665625 89.16771 28.11875 89.370834Q27.5875 89.57396 26.9625 89.57396Q25.93125 89.57396 25.384375 89.07396Q24.8375 88.57396 24.8375 87.79271Q24.8375 87.339584 25.040625 86.964584Q25.24375 86.57396 25.5875 86.35521Q25.93125 86.120834 26.353125 86.01146Q26.65 85.91771 27.290625 85.839584Q28.55625 85.69896 29.165625 85.48021Q29.165625 85.26146 29.165625 85.214584Q29.165625 84.558334 28.86875 84.29271Q28.4625 83.94896 27.665625 83.94896Q26.93125 83.94896 26.571875 84.214584Q26.2125 84.464584 26.040625 85.120834L25.009375 84.98021Q25.15 84.32396 25.478125 83.91771Q25.80625 83.51146 26.415625 83.29271Q27.025 83.07396 27.821875 83.07396Q28.61875 83.07396 29.11875 83.26146Q29.61875 83.44896 29.853125 83.73021Q30.0875 84.01146 30.18125 84.44896Q30.228125 84.714584 30.228125 85.41771L30.228125 86.82396Q30.228125 88.29271 30.290625 88.683334Q30.36875 89.07396 30.571875 89.433334L29.4625 89.433334Q29.30625 89.10521 29.259375 88.66771ZM29.165625 86.308334Q28.5875 86.54271 27.446875 86.714584Q26.790625 86.808334 26.525 86.933334Q26.259375 87.04271 26.103125 87.26146Q25.9625 87.48021 25.9625 87.76146Q25.9625 88.183334 26.275 88.464584Q26.603125 88.745834 27.2125 88.745834Q27.821875 88.745834 28.290625 88.48021Q28.775 88.214584 28.99375 87.745834Q29.165625 87.38646 29.165625 86.69896L29.165625 86.308334ZM34.49375 88.495834L34.65 89.41771Q34.196877 89.51146 33.853127 89.51146Q33.275 89.51146 32.9625 89.339584Q32.65 89.152084 32.509377 88.85521Q32.384377 88.558334 32.384377 87.60521L32.384377 84.027084L31.61875 84.027084L31.61875 83.214584L32.384377 83.214584L32.384377 81.66771L33.43125 81.04271L33.43125 83.214584L34.49375 83.214584L34.49375 84.027084L33.43125 84.027084L33.43125 87.66771Q33.43125 88.120834 33.478127 88.245834Q33.540627 88.370834 33.665627 88.44896Q33.790627 88.527084 34.025 88.527084Q34.2125 88.527084 34.49375 88.495834ZM39.446877 87.433334L40.540627 87.558334Q40.290627 88.51146 39.5875 89.04271Q38.884377 89.57396 37.80625 89.57396Q36.446877 89.57396 35.634377 88.73021Q34.8375 87.88646 34.8375 86.370834Q34.8375 84.808334 35.65 83.94896Q36.4625 83.07396 37.74375 83.07396Q38.99375 83.07396 39.775 83.91771Q40.571877 84.76146 40.571877 86.308334Q40.571877 86.402084 40.571877 86.589584L35.93125 86.589584Q35.99375 87.620834 36.509377 88.16771Q37.025 88.69896 37.80625 88.69896Q38.384377 88.69896 38.790627 88.402084Q39.2125 88.089584 39.446877 87.433334ZM35.99375 85.73021L39.4625 85.73021Q39.4 84.933334 39.071877 84.54271Q38.55625 83.933334 37.759377 83.933334Q37.025 83.933334 36.525 84.41771Q36.040627 84.902084 35.99375 85.73021Z" fill-rule="nonzero"/><path fill="#000000" d="M21.9 133.36563Q21.9 131.83438 22.2125 130.9125Q22.525 129.975 23.134375 129.475Q23.759375 128.975 24.696875 128.975Q25.384375 128.975 25.9 129.25626Q26.43125 129.5375 26.775 130.06876Q27.11875 130.58438 27.30625 131.33438Q27.49375 132.08438 27.49375 133.36563Q27.49375 134.88126 27.18125 135.80313Q26.884375 136.725 26.259375 137.24063Q25.65 137.74063 24.696875 137.74063Q23.4625 137.74063 22.74375 136.85Q21.9 135.7875 21.9 133.36563ZM22.978125 133.36563Q22.978125 135.475 23.478125 136.17813Q23.978125 136.88126 24.696875 136.88126Q25.43125 136.88126 25.915625 136.17813Q26.415625 135.475 26.415625 133.36563Q26.415625 131.24063 25.915625 130.55313Q25.43125 129.85 24.68125 129.85Q23.9625 129.85 23.525 130.45938Q22.978125 131.24063 22.978125 133.36563ZM29.49375 137.6L29.49375 136.39688L30.696875 136.39688L30.696875 137.6L29.49375 137.6ZM31.9 133.36563Q31.9 131.83438 32.2125 130.9125Q32.525 129.975 33.134377 129.475Q33.759377 128.975 34.696877 128.975Q35.384377 128.975 35.9 129.25626Q36.43125 129.5375 36.775 130.06876Q37.11875 130.58438 37.30625 131.33438Q37.49375 132.08438 37.49375 133.36563Q37.49375 134.88126 37.18125 135.80313Q36.884377 136.725 36.259377 137.24063Q35.65 137.74063 34.696877 137.74063Q33.4625 137.74063 32.74375 136.85Q31.9 135.7875 31.9 133.36563ZM32.978127 133.36563Q32.978127 135.475 33.478127 136.17813Q33.978127 136.88126 34.696877 136.88126Q35.43125 136.88126 35.915627 136.17813Q36.415627 135.475 36.415627 133.36563Q36.415627 131.24063 35.915627 130.55313Q35.43125 129.85 34.68125 129.85Q33.9625 129.85 33.525 130.45938Q32.978127 131.24063 32.978127 133.36563ZM42.290627 137.6L42.290627 129.00626L44.009377 129.00626L46.040627 135.08438Q46.321877 135.94376 46.446877 136.36563Q46.5875 135.89688 46.9 134.99063L48.9625 129.00626L50.49375 129.00626L50.49375 137.6L49.4 137.6L49.4 130.4125L46.9 137.6L45.86875 137.6L43.384377 130.2875L43.384377 137.6L42.290627 137.6ZM51.4 137.74063L53.884377 128.86563L54.728127 128.86563L52.24375 137.74063L51.4 137.74063ZM54.775 135.74063L55.80625 135.58438Q55.9 136.20938 56.290627 136.5375Q56.696877 136.86563 57.43125 136.86563Q58.15 136.86563 58.49375 136.58438Q58.853127 136.2875 58.853127 135.88126Q58.853127 135.52188 58.540627 135.31876Q58.321877 135.17813 57.4625 134.95938Q56.30625 134.6625 55.853127 134.45938Q55.415627 134.24063 55.18125 133.86563Q54.946877 133.49063 54.946877 133.02188Q54.946877 132.61563 55.134377 132.25626Q55.321877 131.89688 55.65 131.6625Q55.9 131.49063 56.321877 131.36563Q56.74375 131.24063 57.24375 131.24063Q57.9625 131.24063 58.509377 131.45938Q59.071877 131.6625 59.3375 132.02188Q59.603127 132.38126 59.696877 132.975L58.665627 133.11563Q58.603127 132.64688 58.259377 132.38126Q57.93125 132.1 57.30625 132.1Q56.5875 132.1 56.275 132.35Q55.9625 132.58438 55.9625 132.9125Q55.9625 133.11563 56.0875 133.27188Q56.228127 133.44376 56.49375 133.55313Q56.65 133.61563 57.43125 133.81876Q58.55625 134.13126 58.99375 134.31876Q59.43125 134.50626 59.68125 134.86563Q59.93125 135.225 59.93125 135.77188Q59.93125 136.30313 59.61875 136.77188Q59.321877 137.225 58.74375 137.49063Q58.165627 137.74063 57.43125 137.74063Q56.2125 137.74063 55.571877 137.24063Q54.946877 136.725 54.775 135.74063ZM65.44688 135.6L66.54063 135.725Q66.29063 136.67813 65.5875 137.20938Q64.88438 137.74063 63.80625 137.74063Q62.446877 137.74063 61.634377 136.89688Q60.8375 136.05313 60.8375 134.5375Q60.8375 132.975 61.65 132.11563Q62.4625 131.24063 63.74375 131.24063Q64.99375 131.24063 65.775 132.08438Q66.57188 132.92813 66.57188 134.475Q66.57188 134.56876 66.57188 134.75626L61.93125 134.75626Q61.99375 135.7875 62.509377 136.33438Q63.025 136.86563 63.80625 136.86563Q64.38438 136.86563 64.79063 136.56876Q65.2125 136.25626 65.44688 135.6ZM61.99375 133.89688L65.4625 133.89688Q65.4 133.1 65.07188 132.70938Q64.55625 132.1 63.759377 132.1Q63.025 132.1 62.525 132.58438Q62.040627 133.06876 61.99375 133.89688ZM72.25938 135.31876L73.29063 135.45938Q73.11875 136.52188 72.41563 137.13126Q71.7125 137.74063 70.69688 137.74063Q69.41563 137.74063 68.63438 136.9125Q67.86875 136.06876 67.86875 134.50626Q67.86875 133.50626 68.19688 132.75626Q68.54063 131.99063 69.2125 131.61563Q69.9 131.24063 70.7125 131.24063Q71.7125 131.24063 72.35313 131.75626Q73.00938 132.25626 73.19688 133.20938L72.16563 133.36563Q72.025 132.74063 71.65 132.42813Q71.275 132.1 70.74375 132.1Q69.94688 132.1 69.44688 132.67813Q68.94688 133.24063 68.94688 134.475Q68.94688 135.74063 69.43125 136.30313Q69.91563 136.86563 70.68125 136.86563Q71.30625 136.86563 71.7125 136.49063Q72.13438 136.11563 72.25938 135.31876Z" fill-rule="nonzero"/><path fill="#000000" d="M127.94 135.35L129.04938 135.25626Q129.17438 136.06876 129.61188 136.475Q130.065 136.88126 130.70563 136.88126Q131.45563 136.88126 131.98688 136.30313Q132.51813 135.725 132.51813 134.7875Q132.51813 133.88126 132.0025 133.36563Q131.5025 132.83438 130.67438 132.83438Q130.17438 132.83438 129.7525 133.06876Q129.34625 133.30313 129.11188 133.6625L128.1275 133.5375L128.95563 129.13126L133.23688 129.13126L133.23688 130.13126L129.79938 130.13126L129.34625 132.44376Q130.11188 131.89688 130.95563 131.89688Q132.08063 131.89688 132.84625 132.67813Q133.6275 133.45938 133.6275 134.69376Q133.6275 135.85 132.95563 136.70938Q132.1275 137.74063 130.70563 137.74063Q129.53375 137.74063 128.78375 137.08438Q128.04938 136.42813 127.94 135.35ZM135.53375 137.6L135.53375 136.39688L136.73688 136.39688L136.73688 137.6L135.53375 137.6ZM137.94 133.36563Q137.94 131.83438 138.2525 130.9125Q138.565 129.975 139.17438 129.475Q139.79938 128.975 140.73688 128.975Q141.42438 128.975 141.94 129.25626Q142.47125 129.5375 142.815 130.06876Q143.15875 130.58438 143.34625 131.33438Q143.53375 132.08438 143.53375 133.36563Q143.53375 134.88126 143.22125 135.80313Q142.92438 136.725 142.29938 137.24063Q141.69 137.74063 140.73688 137.74063Q139.5025 137.74063 138.78375 136.85Q137.94 135.7875 137.94 133.36563ZM139.01813 133.36563Q139.01813 135.475 139.51813 136.17813Q140.01813 136.88126 140.73688 136.88126Q141.47125 136.88126 141.95563 136.17813Q142.45563 135.475 142.45563 133.36563Q142.45563 131.24063 141.95563 130.55313Q141.47125 129.85 140.72125 129.85Q140.0025 129.85 139.565 130.45938Q139.01813 131.24063 139.01813 133.36563ZM148.33063 137.6L148.33063 129.00626L150.04938 129.00626L152.08063 135.08438Q152.36188 135.94376 152.48688 136.36563Q152.6275 135.89688 152.94 134.99063L155.0025 129.00626L156.53375 129.00626L156.53375 137.6L155.44 137.6L155.44 130.4125L152.94 137.6L151.90875 137.6L149.42438 130.2875L149.42438 137.6L148.33063 137.6ZM157.44 137.74063L159.92438 128.86563L160.76813 128.86563L158.28375 137.74063L157.44 137.74063ZM160.815 135.74063L161.84625 135.58438Q161.94 136.20938 162.33063 136.5375Q162.73688 136.86563 163.47125 136.86563Q164.19 136.86563 164.53375 136.58438Q164.89313 136.2875 164.89313 135.88126Q164.89313 135.52188 164.58063 135.31876Q164.36188 135.17813 163.5025 134.95938Q162.34625 134.6625 161.89313 134.45938Q161.45563 134.24063 161.22125 133.86563Q160.98688 133.49063 160.98688 133.02188Q160.98688 132.61563 161.17438 132.25626Q161.36188 131.89688 161.69 131.6625Q161.94 131.49063 162.36188 131.36563Q162.78375 131.24063 163.28375 131.24063Q164.0025 131.24063 164.54938 131.45938Q165.11188 131.6625 165.3775 132.02188Q165.64313 132.38126 165.73688 132.975L164.70563 133.11563Q164.64313 132.64688 164.29938 132.38126Q163.97125 132.1 163.34625 132.1Q162.6275 132.1 162.315 132.35Q162.0025 132.58438 162.0025 132.9125Q162.0025 133.11563 162.1275 133.27188Q162.26813 133.44376 162.53375 133.55313Q162.69 133.61563 163.47125 133.81876Q164.59625 134.13126 165.03375 134.31876Q165.47125 134.50626 165.72125 134.86563Q165.97125 135.225 165.97125 135.77188Q165.97125 136.30313 165.65875 136.77188Q165.36188 137.225 164.78375 137.49063Q164.20563 137.74063 163.47125 137.74063Q162.2525 137.74063 161.61188 137.24063Q160.98688 136.725 160.815 135.74063ZM171.48688 135.6L172.58063 135.725Q172.33063 136.67813 171.6275 137.20938Q170.92438 137.74063 169.84625 137.74063Q168.48688 137.74063 167.67438 136.89688Q166.8775 136.05313 166.8775 134.5375Q166.8775 132.975 167.69 132.11563Q168.5025 131.24063 169.78375 131.24063Q171.03375 131.24063 171.815 132.08438Q172.61188 132.92813 172.61188 134.475Q172.61188 134.56876 172.61188 134.75626L167.97125 134.75626Q168.03375 135.7875 168.54938 136.33438Q169.065 136.86563 169.84625 136.86563Q170.42438 136.86563 170.83063 136.56876Q171.2525 136.25626 171.48688 135.6ZM168.03375 133.89688L171.5025 133.89688Q171.44 133.1 171.11188 132.70938Q170.59625 132.1 169.79938 132.1Q169.065 132.1 168.565 132.58438Q168.08063 133.06876 168.03375 133.89688ZM178.29938 135.31876L179.33063 135.45938Q179.15875 136.52188 178.45563 137.13126Q177.7525 137.74063 176.73688 137.74063Q175.45563 137.74063 174.67438 136.9125Q173.90875 136.06876 173.90875 134.50626Q173.90875 133.50626 174.23688 132.75626Q174.58063 131.99063 175.2525 131.61563Q175.94 131.24063 176.7525 131.24063Q177.7525 131.24063 178.39313 131.75626Q179.04938 132.25626 179.23688 133.20938L178.20563 133.36563Q178.065 132.74063 177.69 132.42813Q177.315 132.1 176.78375 132.1Q175.98688 132.1 175.48688 132.67813Q174.98688 133.24063 174.98688 134.475Q174.98688 135.74063 175.47125 136.30313Q175.95563 136.86563 176.72125 136.86563Q177.34625 136.86563 177.7525 136.49063Q178.17438 136.11563 178.29938 135.31876Z" fill-rule="nonzero"/><path fill="#000000" d="M234.44875 137.6L233.40187 137.6L233.40187 130.88126Q233.01125 131.24063 232.38625 131.61563Q231.77687 131.975 231.2925 132.14688L231.2925 131.13126Q232.1675 130.70938 232.82375 130.13126Q233.49562 129.5375 233.77687 128.975L234.44875 128.975L234.44875 137.6ZM237.48 133.36563Q237.48 131.83438 237.7925 130.9125Q238.105 129.975 238.71437 129.475Q239.33937 128.975 240.27687 128.975Q240.96437 128.975 241.48 129.25626Q242.01125 129.5375 242.355 130.06876Q242.69875 130.58438 242.88625 131.33438Q243.07375 132.08438 243.07375 133.36563Q243.07375 134.88126 242.76125 135.80313Q242.46437 136.725 241.83937 137.24063Q241.23 137.74063 240.27687 137.74063Q239.0425 137.74063 238.32375 136.85Q237.48 135.7875 237.48 133.36563ZM238.55812 133.36563Q238.55812 135.475 239.05812 136.17813Q239.55812 136.88126 240.27687 136.88126Q241.01125 136.88126 241.49562 136.17813Q241.99562 135.475 241.99562 133.36563Q241.99562 131.24063 241.49562 130.55313Q241.01125 129.85 240.26125 129.85Q239.5425 129.85 239.105 130.45938Q238.55812 131.24063 238.55812 133.36563ZM245.07375 137.6L245.07375 136.39688L246.27687 136.39688L246.27687 137.6L245.07375 137.6ZM247.48 133.36563Q247.48 131.83438 247.7925 130.9125Q248.105 129.975 248.71437 129.475Q249.33937 128.975 250.27687 128.975Q250.96437 128.975 251.48 129.25626Q252.01125 129.5375 252.355 130.06876Q252.69875 130.58438 252.88625 131.33438Q253.07375 132.08438 253.07375 133.36563Q253.07375 134.88126 252.76125 135.80313Q252.46437 136.725 251.83937 137.24063Q251.23 137.74063 250.27687 137.74063Q249.0425 137.74063 248.32375 136.85Q247.48 135.7875 247.48 133.36563ZM248.55812 133.36563Q248.55812 135.475 249.05812 136.17813Q249.55812 136.88126 250.27687 136.88126Q251.01125 136.88126 251.49562 136.17813Q251.99562 135.475 251.99562 133.36563Q251.99562 131.24063 251.49562 130.55313Q251.01125 129.85 250.26125 129.85Q249.5425 129.85 249.105 130.45938Q248.55812 131.24063 248.55812 133.36563ZM257.8706 137.6L257.8706 129.00626L259.58936 129.00626L261.6206 135.08438Q261.90186 135.94376 262.02686 136.36563Q262.16748 135.89688 262.47998 134.99063L264.54248 129.00626L266.07373 129.00626L266.07373 137.6L264.97998 137.6L264.97998 130.4125L262.47998 137.6L261.44873 137.6L258.96436 130.2875L258.96436 137.6L257.8706 137.6ZM266.97998 137.74063L269.46436 128.86563L270.3081 128.86563L267.82373 137.74063L266.97998 137.74063ZM270.35498 135.74063L271.38623 135.58438Q271.47998 136.20938 271.8706 136.5375Q272.27686 136.86563 273.01123 136.86563Q273.72998 136.86563 274.07373 136.58438Q274.4331 136.2875 274.4331 135.88126Q274.4331 135.52188 274.1206 135.31876Q273.90186 135.17813 273.04248 134.95938Q271.88623 134.6625 271.4331 134.45938Q270.9956 134.24063 270.76123 133.86563Q270.52686 133.49063 270.52686 133.02188Q270.52686 132.61563 270.71436 132.25626Q270.90186 131.89688 271.22998 131.6625Q271.47998 131.49063 271.90186 131.36563Q272.32373 131.24063 272.82373 131.24063Q273.54248 131.24063 274.08936 131.45938Q274.65186 131.6625 274.91748 132.02188Q275.1831 132.38126 275.27686 132.975L274.2456 133.11563Q274.1831 132.64688 273.83936 132.38126Q273.51123 132.1 272.88623 132.1Q272.16748 132.1 271.85498 132.35Q271.54248 132.58438 271.54248 132.9125Q271.54248 133.11563 271.66748 133.27188Q271.8081 133.44376 272.07373 133.55313Q272.22998 133.61563 273.01123 133.81876Q274.13623 134.13126 274.57373 134.31876Q275.01123 134.50626 275.26123 134.86563Q275.51123 135.225 275.51123 135.77188Q275.51123 136.30313 275.19873 136.77188Q274.90186 137.225 274.32373 137.49063Q273.7456 137.74063 273.01123 137.74063Q271.79248 137.74063 271.15186 137.24063Q270.52686 136.725 270.35498 135.74063ZM281.02686 135.6L282.1206 135.725Q281.8706 136.67813 281.16748 137.20938Q280.46436 137.74063 279.38623 137.74063Q278.02686 137.74063 277.21436 136.89688Q276.41748 136.05313 276.41748 134.5375Q276.41748 132.975 277.22998 132.11563Q278.04248 131.24063 279.32373 131.24063Q280.57373 131.24063 281.35498 132.08438Q282.15186 132.92813 282.15186 134.475Q282.15186 134.56876 282.15186 134.75626L277.51123 134.75626Q277.57373 135.7875 278.08936 136.33438Q278.60498 136.86563 279.38623 136.86563Q279.96436 136.86563 280.3706 136.56876Q280.79248 136.25626 281.02686 135.6ZM277.57373 133.89688L281.04248 133.89688Q280.97998 133.1 280.65186 132.70938Q280.13623 132.1 279.33936 132.1Q278.60498 132.1 278.10498 132.58438Q277.6206 133.06876 277.57373 133.89688ZM287.83936 135.31876L288.8706 135.45938Q288.69873 136.52188 287.9956 137.13126Q287.29248 137.74063 286.27686 137.74063Q284.9956 137.74063 284.21436 136.9125Q283.44873 136.06876 283.44873 134.50626Q283.44873 133.50626 283.77686 132.75626Q284.1206 131.99063 284.79248 131.61563Q285.47998 131.24063 286.29248 131.24063Q287.29248 131.24063 287.9331 131.75626Q288.58936 132.25626 288.77686 133.20938L287.7456 133.36563Q287.60498 132.74063 287.22998 132.42813Q286.85498 132.1 286.32373 132.1Q285.52686 132.1 285.02686 132.67813Q284.52686 133.24063 284.52686 134.475Q284.52686 135.74063 285.01123 136.30313Q285.4956 136.86563 286.26123 136.86563Q286.88623 136.86563 287.29248 136.49063Q287.71436 136.11563 287.83936 135.31876Z" fill-rule="nonzero"/><path fill="#000000" d="M340.48874 137.6L339.44186 137.6L339.44186 130.88126Q339.05124 131.24063 338.42624 131.61563Q337.81686 131.975 337.3325 132.14688L337.3325 131.13126Q338.2075 130.70938 338.86374 130.13126Q339.5356 129.5375 339.81686 128.975L340.48874 128.975L340.48874 137.6ZM343.52 135.35L344.62936 135.25626Q344.75436 136.06876 345.19186 136.475Q345.645 136.88126 346.2856 136.88126Q347.0356 136.88126 347.56686 136.30313Q348.0981 135.725 348.0981 134.7875Q348.0981 133.88126 347.5825 133.36563Q347.0825 132.83438 346.25436 132.83438Q345.75436 132.83438 345.3325 133.06876Q344.92624 133.30313 344.69186 133.6625L343.7075 133.5375L344.5356 129.13126L348.81686 129.13126L348.81686 130.13126L345.37936 130.13126L344.92624 132.44376Q345.69186 131.89688 346.5356 131.89688Q347.6606 131.89688 348.42624 132.67813Q349.2075 133.45938 349.2075 134.69376Q349.2075 135.85 348.5356 136.70938Q347.7075 137.74063 346.2856 137.74063Q345.11374 137.74063 344.36374 137.08438Q343.62936 136.42813 343.52 135.35ZM351.11374 137.6L351.11374 136.39688L352.31686 136.39688L352.31686 137.6L351.11374 137.6ZM353.52 133.36563Q353.52 131.83438 353.8325 130.9125Q354.145 129.975 354.75436 129.475Q355.37936 128.975 356.31686 128.975Q357.00436 128.975 357.52 129.25626Q358.05124 129.5375 358.395 130.06876Q358.73874 130.58438 358.92624 131.33438Q359.11374 132.08438 359.11374 133.36563Q359.11374 134.88126 358.80124 135.80313Q358.50436 136.725 357.87936 137.24063Q357.27 137.74063 356.31686 137.74063Q355.0825 137.74063 354.36374 136.85Q353.52 135.7875 353.52 133.36563ZM354.5981 133.36563Q354.5981 135.475 355.0981 136.17813Q355.5981 136.88126 356.31686 136.88126Q357.05124 136.88126 357.5356 136.17813Q358.0356 135.475 358.0356 133.36563Q358.0356 131.24063 357.5356 130.55313Q357.05124 129.85 356.30124 129.85Q355.5825 129.85 355.145 130.45938Q354.5981 131.24063 354.5981 133.36563ZM363.9106 137.6L363.9106 129.00626L365.62936 129.00626L367.6606 135.08438Q367.94186 135.94376 368.06686 136.36563Q368.2075 135.89688 368.52 134.99063L370.5825 129.00626L372.11374 129.00626L372.11374 137.6L371.02 137.6L371.02 130.4125L368.52 137.6L367.48874 137.6L365.00436 130.2875L365.00436 137.6L363.9106 137.6ZM373.02 137.74063L375.50436 128.86563L376.3481 128.86563L373.86374 137.74063L373.02 137.74063ZM376.395 135.74063L377.42624 135.58438Q377.52 136.20938 377.9106 136.5375Q378.31686 136.86563 379.05124 136.86563Q379.77 136.86563 380.11374 136.58438Q380.4731 136.2875 380.4731 135.88126Q380.4731 135.52188 380.1606 135.31876Q379.94186 135.17813 379.0825 134.95938Q377.92624 134.6625 377.4731 134.45938Q377.0356 134.24063 376.80124 133.86563Q376.56686 133.49063 376.56686 133.02188Q376.56686 132.61563 376.75436 132.25626Q376.94186 131.89688 377.27 131.6625Q377.52 131.49063 377.94186 131.36563Q378.36374 131.24063 378.86374 131.24063Q379.5825 131.24063 380.12936 131.45938Q380.69186 131.6625 380.9575 132.02188Q381.2231 132.38126 381.31686 132.975L380.2856 133.11563Q380.2231 132.64688 379.87936 132.38126Q379.55124 132.1 378.92624 132.1Q378.2075 132.1 377.895 132.35Q377.5825 132.58438 377.5825 132.9125Q377.5825 133.11563 377.7075 133.27188Q377.8481 133.44376 378.11374 133.55313Q378.27 133.61563 379.05124 133.81876Q380.17624 134.13126 380.61374 134.31876Q381.05124 134.50626 381.30124 134.86563Q381.55124 135.225 381.55124 135.77188Q381.55124 136.30313 381.23874 136.77188Q380.94186 137.225 380.36374 137.49063Q379.7856 137.74063 379.05124 137.74063Q377.8325 137.74063 377.19186 137.24063Q376.56686 136.725 376.395 135.74063ZM387.06686 135.6L388.1606 135.725Q387.9106 136.67813 387.2075 137.20938Q386.50436 137.74063 385.42624 137.74063Q384.06686 137.74063 383.25436 136.89688Q382.4575 136.05313 382.4575 134.5375Q382.4575 132.975 383.27 132.11563Q384.0825 131.24063 385.36374 131.24063Q386.61374 131.24063 387.395 132.08438Q388.19186 132.92813 388.19186 134.475Q388.19186 134.56876 388.19186 134.75626L383.55124 134.75626Q383.61374 135.7875 384.12936 136.33438Q384.645 136.86563 385.42624 136.86563Q386.00436 136.86563 386.4106 136.56876Q386.8325 136.25626 387.06686 135.6ZM383.61374 133.89688L387.0825 133.89688Q387.02 133.1 386.69186 132.70938Q386.17624 132.1 385.37936 132.1Q384.645 132.1 384.145 132.58438Q383.6606 133.06876 383.61374 133.89688ZM393.87936 135.31876L394.9106 135.45938Q394.73874 136.52188 394.0356 137.13126Q393.3325 137.74063 392.31686 137.74063Q391.0356 137.74063 390.25436 136.9125Q389.48874 136.06876 389.48874 134.50626Q389.48874 133.50626 389.81686 132.75626Q390.1606 131.99063 390.8325 131.61563Q391.52 131.24063 392.3325 131.24063Q393.3325 131.24063 393.9731 131.75626Q394.62936 132.25626 394.81686 133.20938L393.7856 133.36563Q393.645 132.74063 393.27 132.42813Q392.895 132.1 392.36374 132.1Q391.56686 132.1 391.06686 132.67813Q390.56686 133.24063 390.56686 134.475Q390.56686 135.74063 391.05124 136.30313Q391.5356 136.86563 392.30124 136.86563Q392.92624 136.86563 393.3325 136.49063Q393.75436 136.11563 393.87936 135.31876Z" fill-rule="nonzero"/><path fill="#000000" d="M448.10687 136.58438L448.10687 137.6L442.41937 137.6Q442.41937 137.225 442.54437 136.86563Q442.76312 136.2875 443.23187 135.725Q443.71625 135.1625 444.6225 134.42813Q446.02875 133.27188 446.51312 132.6Q447.01312 131.92813 447.01312 131.33438Q447.01312 130.70938 446.56 130.2875Q446.10687 129.85 445.38812 129.85Q444.6225 129.85 444.16937 130.30313Q443.71625 130.75626 443.70062 131.56876L442.6225 131.45938Q442.73187 130.24063 443.45062 129.61563Q444.185 128.975 445.41937 128.975Q446.65375 128.975 447.3725 129.6625Q448.09125 130.35 448.09125 131.36563Q448.09125 131.88126 447.8725 132.38126Q447.66937 132.86563 447.16937 133.42813Q446.685 133.975 445.56 134.92813Q444.60687 135.725 444.32562 136.02188Q444.06 136.30313 443.88812 136.58438L448.10687 136.58438ZM449.56 133.36563Q449.56 131.83438 449.8725 130.9125Q450.185 129.975 450.79437 129.475Q451.41937 128.975 452.35687 128.975Q453.04437 128.975 453.56 129.25626Q454.09125 129.5375 454.435 130.06876Q454.77875 130.58438 454.96625 131.33438Q455.15375 132.08438 455.15375 133.36563Q455.15375 134.88126 454.84125 135.80313Q454.54437 136.725 453.91937 137.24063Q453.31 137.74063 452.35687 137.74063Q451.1225 137.74063 450.40375 136.85Q449.56 135.7875 449.56 133.36563ZM450.63812 133.36563Q450.63812 135.475 451.13812 136.17813Q451.63812 136.88126 452.35687 136.88126Q453.09125 136.88126 453.57562 136.17813Q454.07562 135.475 454.07562 133.36563Q454.07562 131.24063 453.57562 130.55313Q453.09125 129.85 452.34125 129.85Q451.6225 129.85 451.185 130.45938Q450.63812 131.24063 450.63812 133.36563ZM457.15375 137.6L457.15375 136.39688L458.35687 136.39688L458.35687 137.6L457.15375 137.6ZM459.56 133.36563Q459.56 131.83438 459.8725 130.9125Q460.185 129.975 460.79437 129.475Q461.41937 128.975 462.35687 128.975Q463.04437 128.975 463.56 129.25626Q464.09125 129.5375 464.435 130.06876Q464.77875 130.58438 464.96625 131.33438Q465.15375 132.08438 465.15375 133.36563Q465.15375 134.88126 464.84125 135.80313Q464.54437 136.725 463.91937 137.24063Q463.31 137.74063 462.35687 137.74063Q461.1225 137.74063 460.40375 136.85Q459.56 135.7875 459.56 133.36563ZM460.63812 133.36563Q460.63812 135.475 461.13812 136.17813Q461.63812 136.88126 462.35687 136.88126Q463.09125 136.88126 463.57562 136.17813Q464.07562 135.475 464.07562 133.36563Q464.07562 131.24063 463.57562 130.55313Q463.09125 129.85 462.34125 129.85Q461.6225 129.85 461.185 130.45938Q460.63812 131.24063 460.63812 133.36563ZM469.95062 137.6L469.95062 129.00626L471.66937 129.00626L473.70062 135.08438Q473.98187 135.94376 474.10687 136.36563Q474.2475 135.89688 474.56 134.99063L476.6225 129.00626L478.15375 129.00626L478.15375 137.6L477.06 137.6L477.06 130.4125L474.56 137.6L473.52875 137.6L471.04437 130.2875L471.04437 137.6L469.95062 137.6ZM479.06 137.74063L481.54437 128.86563L482.38812 128.86563L479.90375 137.74063L479.06 137.74063ZM482.435 135.74063L483.46625 135.58438Q483.56 136.20938 483.95062 136.5375Q484.35687 136.86563 485.09125 136.86563Q485.81 136.86563 486.15375 136.58438Q486.51312 136.2875 486.51312 135.88126Q486.51312 135.52188 486.20062 135.31876Q485.98187 135.17813 485.1225 134.95938Q483.96625 134.6625 483.51312 134.45938Q483.07562 134.24063 482.84125 133.86563Q482.60687 133.49063 482.60687 133.02188Q482.60687 132.61563 482.79437 132.25626Q482.98187 131.89688 483.31 131.6625Q483.56 131.49063 483.98187 131.36563Q484.40375 131.24063 484.90375 131.24063Q485.6225 131.24063 486.16937 131.45938Q486.73187 131.6625 486.9975 132.02188Q487.26312 132.38126 487.35687 132.975L486.32562 133.11563Q486.26312 132.64688 485.91937 132.38126Q485.59125 132.1 484.96625 132.1Q484.2475 132.1 483.935 132.35Q483.6225 132.58438 483.6225 132.9125Q483.6225 133.11563 483.7475 133.27188Q483.88812 133.44376 484.15375 133.55313Q484.31 133.61563 485.09125 133.81876Q486.21625 134.13126 486.65375 134.31876Q487.09125 134.50626 487.34125 134.86563Q487.59125 135.225 487.59125 135.77188Q487.59125 136.30313 487.27875 136.77188Q486.98187 137.225 486.40375 137.49063Q485.82562 137.74063 485.09125 137.74063Q483.8725 137.74063 483.23187 137.24063Q482.60687 136.725 482.435 135.74063ZM493.10687 135.6L494.20062 135.725Q493.95062 136.67813 493.2475 137.20938Q492.54437 137.74063 491.46625 137.74063Q490.10687 137.74063 489.29437 136.89688Q488.4975 136.05313 488.4975 134.5375Q488.4975 132.975 489.31 132.11563Q490.1225 131.24063 491.40375 131.24063Q492.65375 131.24063 493.435 132.08438Q494.23187 132.92813 494.23187 134.475Q494.23187 134.56876 494.23187 134.75626L489.59125 134.75626Q489.65375 135.7875 490.16937 136.33438Q490.685 136.86563 491.46625 136.86563Q492.04437 136.86563 492.45062 136.56876Q492.8725 136.25626 493.10687 135.6ZM489.65375 133.89688L493.1225 133.89688Q493.06 133.1 492.73187 132.70938Q492.21625 132.1 491.41937 132.1Q490.685 132.1 490.185 132.58438Q489.70062 133.06876 489.65375 133.89688ZM499.91937 135.31876L500.95062 135.45938Q500.77875 136.52188 500.07562 137.13126Q499.3725 137.74063 498.35687 137.74063Q497.07562 137.74063 496.29437 136.9125Q495.52875 136.06876 495.52875 134.50626Q495.52875 133.50626 495.85687 132.75626Q496.20062 131.99063 496.8725 131.61563Q497.56 131.24063 498.3725 131.24063Q499.3725 131.24063 500.01312 131.75626Q500.66937 132.25626 500.85687 133.20938L499.82562 133.36563Q499.685 132.74063 499.31 132.42813Q498.935 132.1 498.40375 132.1Q497.60687 132.1 497.10687 132.67813Q496.60687 133.24063 496.60687 134.475Q496.60687 135.74063 497.09125 136.30313Q497.57562 136.86563 498.34125 136.86563Q498.96625 136.86563 499.3725 136.49063Q499.79437 136.11563 499.91937 135.31876Z" fill-rule="nonzero"/><path fill="#4285f4" d="M214.5 33.333332C214.5 32.781048 214.94771 32.333332 215.5 32.333332L225.5 32.333332C226.05229 32.333332 226.5 32.781048 226.5 33.333332L226.5 43.333332C226.5 43.885616 226.05229 44.333332 225.5 44.333332L215.5 44.333332C214.94771 44.333332 214.5 43.885616 214.5 43.333332Z" fill-rule="nonzero"/><path fill="#1a1a1a" d="M235.04688 39.567707L236.10938 39.473957Q236.1875 40.130207 236.46875 40.536457Q236.75 40.942707 237.32812 41.208332Q237.92188 41.458332 238.65625 41.458332Q239.29688 41.458332 239.79688 41.270832Q240.29688 41.067707 240.53125 40.739582Q240.78125 40.395832 240.78125 40.005207Q240.78125 39.598957 240.54688 39.302082Q240.3125 38.989582 239.78125 38.786457Q239.42188 38.645832 238.23438 38.364582Q237.0625 38.083332 236.59375 37.833332Q235.96875 37.505207 235.67188 37.036457Q235.375 36.552082 235.375 35.958332Q235.375 35.317707 235.73438 34.755207Q236.10938 34.177082 236.8125 33.895832Q237.53125 33.598957 238.39062 33.598957Q239.34375 33.598957 240.07812 33.911457Q240.8125 34.208332 241.20312 34.817707Q241.59375 35.411457 241.625 36.161457L240.53125 36.239582Q240.4375 35.427082 239.92188 35.020832Q239.42188 34.598957 238.4375 34.598957Q237.40625 34.598957 236.9375 34.973957Q236.46875 35.348957 236.46875 35.880207Q236.46875 36.348957 236.79688 36.645832Q237.125 36.942707 238.5 37.255207Q239.89062 37.567707 240.40625 37.802082Q241.15625 38.161457 241.51562 38.692707Q241.875 39.208332 241.875 39.911457Q241.875 40.598957 241.48438 41.208332Q241.09375 41.802082 240.35938 42.145832Q239.625 42.473957 238.70312 42.473957Q237.53125 42.473957 236.73438 42.145832Q235.95312 41.802082 235.5 41.114582Q235.0625 40.427082 235.04688 39.567707ZM245.59375 41.395832L245.75 42.317707Q245.29688 42.411457 244.95312 42.411457Q244.375 42.411457 244.0625 42.239582Q243.75 42.052082 243.60938 41.755207Q243.48438 41.458332 243.48438 40.505207L243.48438 36.927082L242.71875 36.927082L242.71875 36.114582L243.48438 36.114582L243.48438 34.567707L244.53125 33.942707L244.53125 36.114582L245.59375 36.114582L245.59375 36.927082L244.53125 36.927082L244.53125 40.567707Q244.53125 41.020832 244.57812 41.145832Q244.64062 41.270832 244.76562 41.348957Q244.89062 41.427082 245.125 41.427082Q245.3125 41.427082 245.59375 41.395832ZM245.90625 39.223957Q245.90625 37.489582 246.85938 36.661457Q247.65625 35.973957 248.8125 35.973957Q250.09375 35.973957 250.90625 36.817707Q251.73438 37.645832 251.73438 39.130207Q251.73438 40.333332 251.375 41.020832Q251.01562 41.708332 250.3125 42.098957Q249.625 42.473957 248.8125 42.473957Q247.51562 42.473957 246.70312 41.645832Q245.90625 40.802082 245.90625 39.223957ZM246.98438 39.223957Q246.98438 40.411457 247.5 41.005207Q248.03125 41.598957 248.8125 41.598957Q249.60938 41.598957 250.125 41.005207Q250.64062 40.411457 250.64062 39.192707Q250.64062 38.036457 250.10938 37.442707Q249.59375 36.848957 248.8125 36.848957Q248.03125 36.848957 247.5 37.442707Q246.98438 38.020832 246.98438 39.223957ZM253.28125 42.333332L253.28125 36.114582L254.23438 36.114582L254.23438 37.052082Q254.59375 36.395832 254.89062 36.192707Q255.20312 35.973957 255.57812 35.973957Q256.10938 35.973957 256.65625 36.302082L256.29688 37.286457Q255.90625 37.052082 255.53125 37.052082Q255.17188 37.052082 254.89062 37.270832Q254.625 37.473957 254.51562 37.848957Q254.32812 38.411457 254.32812 39.067707L254.32812 42.333332L253.28125 42.333332ZM257.29688 42.333332L257.29688 36.114582L258.23438 36.114582L258.23438 36.989582Q258.53125 36.520832 259.01562 36.255207Q259.5 35.973957 260.125 35.973957Q260.8125 35.973957 261.25 36.255207Q261.70312 36.536457 261.875 37.052082Q262.625 35.973957 263.79688 35.973957Q264.73438 35.973957 265.21875 36.489582Q265.71875 36.989582 265.71875 38.067707L265.71875 42.333332L264.67188 42.333332L264.67188 38.411457Q264.67188 37.786457 264.5625 37.505207Q264.46875 37.223957 264.20312 37.052082Q263.9375 36.880207 263.5625 36.880207Q262.90625 36.880207 262.46875 37.317707Q262.04688 37.755207 262.04688 38.723957L262.04688 42.333332L260.98438 42.333332L260.98438 38.286457Q260.98438 37.583332 260.71875 37.239582Q260.46875 36.880207 259.89062 36.880207Q259.4375 36.880207 259.0625 37.114582Q258.6875 37.348957 258.51562 37.802082Q258.34375 38.255207 258.34375 39.098957L258.34375 42.333332L257.29688 42.333332ZM267.42188 42.333332L267.42188 33.739582L270.39062 33.739582Q271.39062 33.739582 271.92188 33.864582Q272.65625 34.036457 273.17188 34.473957Q273.85938 35.052082 274.1875 35.958332Q274.53125 36.848957 274.53125 37.989582Q274.53125 38.973957 274.29688 39.723957Q274.07812 40.473957 273.71875 40.973957Q273.35938 41.473957 272.92188 41.755207Q272.5 42.036457 271.90625 42.192707Q271.3125 42.333332 270.53125 42.333332L267.42188 42.333332ZM268.5625 41.317707L270.39062 41.317707Q271.25 41.317707 271.73438 41.161457Q272.21875 41.005207 272.5 40.708332Q272.90625 40.317707 273.125 39.630207Q273.35938 38.942707 273.35938 37.973957Q273.35938 36.630207 272.90625 35.911457Q272.46875 35.177082 271.84375 34.927082Q271.375 34.755207 270.375 34.755207L268.5625 34.755207L268.5625 41.317707ZM276.375 42.333332L276.375 33.739582L279.60938 33.739582Q280.59375 33.739582 281.1875 34.005207Q281.78125 34.270832 282.10938 34.817707Q282.45312 35.348957 282.45312 35.942707Q282.45312 36.489582 282.15625 36.973957Q281.85938 37.458332 281.25 37.755207Q282.03125 37.989582 282.4375 38.552082Q282.85938 39.098957 282.85938 39.848957Q282.85938 40.442707 282.60938 40.973957Q282.35938 41.489582 281.98438 41.770832Q281.60938 42.052082 281.03125 42.192707Q280.46875 42.333332 279.65625 42.333332L276.375 42.333332ZM277.51562 37.348957L279.375 37.348957Q280.125 37.348957 280.45312 37.255207Q280.89062 37.130207 281.10938 36.833332Q281.32812 36.520832 281.32812 36.067707Q281.32812 35.645832 281.125 35.317707Q280.92188 34.989582 280.53125 34.880207Q280.15625 34.755207 279.23438 34.755207L277.51562 34.755207L277.51562 37.348957ZM277.51562 41.317707L279.65625 41.317707Q280.20312 41.317707 280.42188 41.270832Q280.82812 41.208332 281.07812 41.052082Q281.34375 40.880207 281.51562 40.567707Q281.6875 40.255207 281.6875 39.848957Q281.6875 39.364582 281.4375 39.005207Q281.20312 38.645832 280.76562 38.505207Q280.32812 38.364582 279.5 38.364582L277.51562 38.364582L277.51562 41.317707Z" fill-rule="nonzero"/><path fill="#ea4335" d="M299.5 33.333332C299.5 32.781048 299.94772 32.333332 300.5 32.333332L310.5 32.333332C311.05228 32.333332 311.5 32.781048 311.5 33.333332L311.5 43.333332C311.5 43.885616 311.05228 44.333332 310.5 44.333332L300.5 44.333332C299.94772 44.333332 299.5 43.885616 299.5 43.333332Z" fill-rule="nonzero"/><path fill="#1a1a1a" d="M320.4375 42.333332L320.4375 33.739582L324.25 33.739582Q325.40625 33.739582 326.0 33.973957Q326.59375 34.208332 326.95312 34.802082Q327.3125 35.380207 327.3125 36.083332Q327.3125 37.005207 326.71875 37.630207Q326.125 38.255207 324.89062 38.427082Q325.34375 38.645832 325.57812 38.848957Q326.07812 39.302082 326.51562 39.989582L328.01562 42.333332L326.57812 42.333332L325.45312 40.552082Q324.95312 39.770832 324.625 39.364582Q324.3125 38.958332 324.04688 38.802082Q323.79688 38.630207 323.53125 38.552082Q323.34375 38.520832 322.90625 38.520832L321.57812 38.520832L321.57812 42.333332L320.4375 42.333332ZM321.57812 37.536457L324.03125 37.536457Q324.79688 37.536457 325.23438 37.380207Q325.6875 37.208332 325.90625 36.864582Q326.14062 36.505207 326.14062 36.083332Q326.14062 35.473957 325.6875 35.083332Q325.25 34.692707 324.29688 34.692707L321.57812 34.692707L321.57812 37.536457ZM328.90625 39.223957Q328.90625 37.489582 329.85938 36.661457Q330.65625 35.973957 331.8125 35.973957Q333.09375 35.973957 333.90625 36.817707Q334.73438 37.645832 334.73438 39.130207Q334.73438 40.333332 334.375 41.020832Q334.01562 41.708332 333.3125 42.098957Q332.625 42.473957 331.8125 42.473957Q330.51562 42.473957 329.70312 41.645832Q328.90625 40.802082 328.90625 39.223957ZM329.98438 39.223957Q329.98438 40.411457 330.5 41.005207Q331.03125 41.598957 331.8125 41.598957Q332.60938 41.598957 333.125 41.005207Q333.64062 40.411457 333.64062 39.192707Q333.64062 38.036457 333.10938 37.442707Q332.59375 36.848957 331.8125 36.848957Q331.03125 36.848957 330.5 37.442707Q329.98438 38.020832 329.98438 39.223957ZM340.35938 40.052082L341.39062 40.192707Q341.21875 41.255207 340.51562 41.864582Q339.8125 42.473957 338.79688 42.473957Q337.51562 42.473957 336.73438 41.645832Q335.96875 40.802082 335.96875 39.239582Q335.96875 38.239582 336.29688 37.489582Q336.64062 36.723957 337.3125 36.348957Q338.0 35.973957 338.8125 35.973957Q339.8125 35.973957 340.45312 36.489582Q341.10938 36.989582 341.29688 37.942707L340.26562 38.098957Q340.125 37.473957 339.75 37.161457Q339.375 36.833332 338.84375 36.833332Q338.04688 36.833332 337.54688 37.411457Q337.04688 37.973957 337.04688 39.208332Q337.04688 40.473957 337.53125 41.036457Q338.01562 41.598957 338.78125 41.598957Q339.40625 41.598957 339.8125 41.223957Q340.23438 40.848957 340.35938 40.052082ZM342.29688 42.333332L342.29688 33.739582L343.35938 33.739582L343.35938 38.645832L345.84375 36.114582L347.21875 36.114582L344.82812 38.411457L347.45312 42.333332L346.15625 42.333332L344.09375 39.145832L343.35938 39.864582L343.35938 42.333332L342.29688 42.333332ZM347.875 40.473957L348.90625 40.317707Q349.0 40.942707 349.39062 41.270832Q349.79688 41.598957 350.53125 41.598957Q351.25 41.598957 351.59375 41.317707Q351.95312 41.020832 351.95312 40.614582Q351.95312 40.255207 351.64062 40.052082Q351.42188 39.911457 350.5625 39.692707Q349.40625 39.395832 348.95312 39.192707Q348.51562 38.973957 348.28125 38.598957Q348.04688 38.223957 348.04688 37.755207Q348.04688 37.348957 348.23438 36.989582Q348.42188 36.630207 348.75 36.395832Q349.0 36.223957 349.42188 36.098957Q349.84375 35.973957 350.34375 35.973957Q351.0625 35.973957 351.60938 36.192707Q352.17188 36.395832 352.4375 36.755207Q352.70312 37.114582 352.79688 37.708332L351.76562 37.848957Q351.70312 37.380207 351.35938 37.114582Q351.03125 36.833332 350.40625 36.833332Q349.6875 36.833332 349.375 37.083332Q349.0625 37.317707 349.0625 37.645832Q349.0625 37.848957 349.1875 38.005207Q349.32812 38.177082 349.59375 38.286457Q349.75 38.348957 350.53125 38.552082Q351.65625 38.864582 352.09375 39.052082Q352.53125 39.239582 352.78125 39.598957Q353.03125 39.958332 353.03125 40.505207Q353.03125 41.036457 352.71875 41.505207Q352.42188 41.958332 351.84375 42.223957Q351.26562 42.473957 350.53125 42.473957Q349.3125 42.473957 348.67188 41.973957Q348.04688 41.458332 347.875 40.473957ZM354.42188 42.333332L354.42188 33.739582L357.39062 33.739582Q358.39062 33.739582 358.92188 33.864582Q359.65625 34.036457 360.17188 34.473957Q360.85938 35.052082 361.1875 35.958332Q361.53125 36.848957 361.53125 37.989582Q361.53125 38.973957 361.29688 39.723957Q361.07812 40.473957 360.71875 40.973957Q360.35938 41.473957 359.92188 41.755207Q359.5 42.036457 358.90625 42.192707Q358.3125 42.333332 357.53125 42.333332L354.42188 42.333332ZM355.5625 41.317707L357.39062 41.317707Q358.25 41.317707 358.73438 41.161457Q359.21875 41.005207 359.5 40.708332Q359.90625 40.317707 360.125 39.630207Q360.35938 38.942707 360.35938 37.973957Q360.35938 36.630207 359.90625 35.911457Q359.46875 35.177082 358.84375 34.927082Q358.375 34.755207 357.375 34.755207L355.5625 34.755207L355.5625 41.317707ZM363.375 42.333332L363.375 33.739582L366.60938 33.739582Q367.59375 33.739582 368.1875 34.005207Q368.78125 34.270832 369.10938 34.817707Q369.45312 35.348957 369.45312 35.942707Q369.45312 36.489582 369.15625 36.973957Q368.85938 37.458332 368.25 37.755207Q369.03125 37.989582 369.4375 38.552082Q369.85938 39.098957 369.85938 39.848957Q369.85938 40.442707 369.60938 40.973957Q369.35938 41.489582 368.98438 41.770832Q368.60938 42.052082 368.03125 42.192707Q367.46875 42.333332 366.65625 42.333332L363.375 42.333332ZM364.51562 37.348957L366.375 37.348957Q367.125 37.348957 367.45312 37.255207Q367.89062 37.130207 368.10938 36.833332Q368.32812 36.520832 368.32812 36.067707Q368.32812 35.645832 368.125 35.317707Q367.92188 34.989582 367.53125 34.880207Q367.15625 34.755207 366.23438 34.755207L364.51562 34.755207L364.51562 37.348957ZM364.51562 41.317707L366.65625 41.317707Q367.20312 41.317707 367.42188 41.270832Q367.82812 41.208332 368.07812 41.052082Q368.34375 40.880207 368.51562 40.567707Q368.6875 40.255207 368.6875 39.848957Q368.6875 39.364582 368.4375 39.005207Q368.20312 38.645832 367.76562 38.505207Q367.32812 38.364582 366.5 38.364582L364.51562 38.364582L364.51562 41.317707Z" fill-rule="nonzero"/><path fill="#000000" d="M8.9 22.4L8.9 10.946875L10.415625 10.946875L10.415625 22.4L8.9 22.4ZM15.525 21.134375L15.728125 22.384375Q15.134375 22.509375 14.665625 22.509375Q13.9 22.509375 13.478125 22.275Q13.05625 22.025 12.884375 21.634375Q12.7125 21.228125 12.7125 19.9625L12.7125 15.196875L11.68125 15.196875L11.68125 14.103125L12.7125 14.103125L12.7125 12.040625L14.11875 11.196875L14.11875 14.103125L15.525 14.103125L15.525 15.196875L14.11875 15.196875L14.11875 20.040625Q14.11875 20.65 14.18125 20.821875Q14.259375 20.99375 14.43125 21.103125Q14.603125 21.196875 14.915625 21.196875Q15.15 21.196875 15.525 21.134375ZM22.134375 19.728125L23.5875 19.9Q23.24375 21.18125 22.30625 21.884375Q21.384375 22.5875 19.946875 22.5875Q18.11875 22.5875 17.05625 21.4625Q15.99375 20.3375 15.99375 18.321875Q15.99375 16.228125 17.071875 15.071875Q18.15 13.915625 19.86875 13.915625Q21.525 13.915625 22.571875 15.05625Q23.634375 16.18125 23.634375 18.228125Q23.634375 18.353125 23.634375 18.603125L17.446875 18.603125Q17.525 19.978125 18.2125 20.7125Q18.915625 21.43125 19.946875 21.43125Q20.728125 21.43125 21.275 21.025Q21.821875 20.61875 22.134375 19.728125ZM17.525 17.446875L22.15 17.446875Q22.05625 16.4 21.61875 15.884375Q20.946875 15.071875 19.884375 15.071875Q18.915625 15.071875 18.24375 15.728125Q17.5875 16.36875 17.525 17.446875ZM25.446875 22.4L25.446875 14.103125L26.7125 14.103125L26.7125 15.353125Q27.196875 14.478125 27.603125 14.196875Q28.009375 13.915625 28.509375 13.915625Q29.2125 13.915625 29.946875 14.36875L29.4625 15.665625Q28.946875 15.36875 28.43125 15.36875Q27.978125 15.36875 27.603125 15.65Q27.24375 15.915625 27.0875 16.415625Q26.853125 17.165625 26.853125 18.05625L26.853125 22.4L25.446875 22.4ZM35.86875 21.36875Q35.0875 22.040625 34.36875 22.321875Q33.65 22.5875 32.821877 22.5875Q31.446875 22.5875 30.7125 21.915625Q29.978125 21.24375 29.978125 20.2125Q29.978125 19.603125 30.259375 19.103125Q30.540625 18.5875 30.978125 18.290625Q31.43125 17.978125 31.99375 17.821875Q32.415627 17.7125 33.24375 17.61875Q34.946877 17.415625 35.759377 17.134375Q35.759377 16.8375 35.759377 16.759375Q35.759377 15.9 35.36875 15.55625Q34.821877 15.071875 33.759377 15.071875Q32.775 15.071875 32.290627 15.43125Q31.821875 15.775 31.603125 16.65L30.228125 16.4625Q30.415625 15.5875 30.8375 15.040625Q31.275 14.49375 32.0875 14.2125Q32.9 13.915625 33.9625 13.915625Q35.025 13.915625 35.68125 14.165625Q36.353127 14.415625 36.665627 14.790625Q36.978127 15.165625 37.103127 15.74375Q37.18125 16.103125 37.18125 17.040625L37.18125 18.915625Q37.18125 20.884375 37.259377 21.4Q37.353127 21.915625 37.61875 22.4L36.15 22.4Q35.93125 21.9625 35.86875 21.36875ZM35.759377 18.228125Q34.99375 18.540625 33.4625 18.759375Q32.5875 18.884375 32.228127 19.040625Q31.86875 19.196875 31.665625 19.509375Q31.478125 19.80625 31.478125 20.165625Q31.478125 20.728125 31.9 21.103125Q32.3375 21.478125 33.15 21.478125Q33.9625 21.478125 34.5875 21.134375Q35.228127 20.775 35.525 20.15Q35.759377 19.68125 35.759377 18.74375L35.759377 18.228125ZM42.525 21.134375L42.728127 22.384375Q42.134377 22.509375 41.665627 22.509375Q40.9 22.509375 40.478127 22.275Q40.05625 22.025 39.884377 21.634375Q39.7125 21.228125 39.7125 19.9625L39.7125 15.196875L38.68125 15.196875L38.68125 14.103125L39.7125 14.103125L39.7125 12.040625L41.11875 11.196875L41.11875 14.103125L42.525 14.103125L42.525 15.196875L41.11875 15.196875L41.11875 20.040625Q41.11875 20.65 41.18125 20.821875Q41.259377 20.99375 41.43125 21.103125Q41.603127 21.196875 41.915627 21.196875Q42.15 21.196875 42.525 21.134375ZM49.134377 19.728125L50.5875 19.9Q50.24375 21.18125 49.30625 21.884375Q48.384377 22.5875 46.946877 22.5875Q45.11875 22.5875 44.05625 21.4625Q42.99375 20.3375 42.99375 18.321875Q42.99375 16.228125 44.071877 15.071875Q45.15 13.915625 46.86875 13.915625Q48.525 13.915625 49.571877 15.05625Q50.634377 16.18125 50.634377 18.228125Q50.634377 18.353125 50.634377 18.603125L44.446877 18.603125Q44.525 19.978125 45.2125 20.7125Q45.915627 21.43125 46.946877 21.43125Q47.728127 21.43125 48.275 21.025Q48.821877 20.61875 49.134377 19.728125ZM44.525 17.446875L49.15 17.446875Q49.05625 16.4 48.61875 15.884375Q47.946877 15.071875 46.884377 15.071875Q45.915627 15.071875 45.24375 15.728125Q44.5875 16.36875 44.525 17.446875ZM55.93125 18.24375Q55.93125 15.946875 57.2125 14.8375Q58.290627 13.915625 59.821877 13.915625Q61.540627 13.915625 62.61875 15.040625Q63.7125 16.15 63.7125 18.134375Q63.7125 19.728125 63.228127 20.65Q62.74375 21.571875 61.821877 22.0875Q60.915627 22.5875 59.821877 22.5875Q58.0875 22.5875 57.009377 21.478125Q55.93125 20.353125 55.93125 18.24375ZM57.384377 18.24375Q57.384377 19.8375 58.071877 20.634375Q58.775 21.43125 59.821877 21.43125Q60.86875 21.43125 61.55625 20.634375Q62.259377 19.8375 62.259377 18.196875Q62.259377 16.665625 61.55625 15.86875Q60.86875 15.071875 59.821877 15.071875Q58.775 15.071875 58.071877 15.86875Q57.384377 16.65 57.384377 18.24375ZM67.75938 22.4L64.60313 14.103125L66.0875 14.103125L67.86875 19.071875Q68.16563 19.86875 68.4 20.74375Q68.5875 20.0875 68.93125 19.165625L70.775 14.103125L72.2125 14.103125L69.07188 22.4L67.75938 22.4ZM79.13438 19.728125L80.5875 19.9Q80.24375 21.18125 79.30625 21.884375Q78.38438 22.5875 76.94688 22.5875Q75.11875 22.5875 74.05625 21.4625Q72.99375 20.3375 72.99375 18.321875Q72.99375 16.228125 74.07188 15.071875Q75.15 13.915625 76.86875 13.915625Q78.525 13.915625 79.57188 15.05625Q80.63438 16.18125 80.63438 18.228125Q80.63438 18.353125 80.63438 18.603125L74.44688 18.603125Q74.525 19.978125 75.2125 20.7125Q75.91563 21.43125 76.94688 21.43125Q77.72813 21.43125 78.275 21.025Q78.82188 20.61875 79.13438 19.728125ZM74.525 17.446875L79.15 17.446875Q79.05625 16.4 78.61875 15.884375Q77.94688 15.071875 76.88438 15.071875Q75.91563 15.071875 75.24375 15.728125Q74.5875 16.36875 74.525 17.446875ZM82.44688 22.4L82.44688 14.103125L83.7125 14.103125L83.7125 15.353125Q84.19688 14.478125 84.60313 14.196875Q85.00938 13.915625 85.50938 13.915625Q86.2125 13.915625 86.94688 14.36875L86.4625 15.665625Q85.94688 15.36875 85.43125 15.36875Q84.97813 15.36875 84.60313 15.65Q84.24375 15.915625 84.0875 16.415625Q83.85313 17.165625 83.85313 18.05625L83.85313 22.4L82.44688 22.4ZM96.86875 21.36875Q96.0875 22.040625 95.36875 22.321875Q94.65 22.5875 93.82188 22.5875Q92.44688 22.5875 91.7125 21.915625Q90.97813 21.24375 90.97813 20.2125Q90.97813 19.603125 91.25938 19.103125Q91.54063 18.5875 91.97813 18.290625Q92.43125 17.978125 92.99375 17.821875Q93.41563 17.7125 94.24375 17.61875Q95.94688 17.415625 96.75938 17.134375Q96.75938 16.8375 96.75938 16.759375Q96.75938 15.9 96.36875 15.55625Q95.82188 15.071875 94.75938 15.071875Q93.775 15.071875 93.29063 15.43125Q92.82188 15.775 92.60313 16.65L91.22813 16.4625Q91.41563 15.5875 91.8375 15.040625Q92.275 14.49375 93.0875 14.2125Q93.9 13.915625 94.9625 13.915625Q96.025 13.915625 96.68125 14.165625Q97.35313 14.415625 97.66563 14.790625Q97.97813 15.165625 98.10313 15.74375Q98.18125 16.103125 98.18125 17.040625L98.18125 18.915625Q98.18125 20.884375 98.25938 21.4Q98.35313 21.915625 98.61875 22.4L97.15 22.4Q96.93125 21.9625 96.86875 21.36875ZM96.75938 18.228125Q95.99375 18.540625 94.4625 18.759375Q93.5875 18.884375 93.22813 19.040625Q92.86875 19.196875 92.66563 19.509375Q92.47813 19.80625 92.47813 20.165625Q92.47813 20.728125 92.9 21.103125Q93.3375 21.478125 94.15 21.478125Q94.9625 21.478125 95.5875 21.134375Q96.22813 20.775 96.525 20.15Q96.75938 19.68125 96.75938 18.74375L96.75938 18.228125ZM100.43125 22.4L100.43125 10.946875L101.8375 10.946875L101.8375 22.4L100.43125 22.4ZM104.43125 22.4L104.43125 10.946875L105.8375 10.946875L105.8375 22.4L104.43125 22.4ZM112.4625 22.4L112.4625 10.946875L113.86875 10.946875L113.86875 17.478125L117.19688 14.103125L119.025 14.103125L115.85313 17.18125L119.3375 22.4L117.60313 22.4L114.86875 18.15L113.86875 19.103125L113.86875 22.4L112.4625 22.4ZM126.13438 19.728125L127.5875 19.9Q127.24375 21.18125 126.30625 21.884375Q125.38438 22.5875 123.94688 22.5875Q122.11875 22.5875 121.05625 21.4625Q119.99375 20.3375 119.99375 18.321875Q119.99375 16.228125 121.07188 15.071875Q122.15 13.915625 123.86875 13.915625Q125.525 13.915625 126.57188 15.05625Q127.63438 16.18125 127.63438 18.228125Q127.63438 18.353125 127.63438 18.603125L121.44688 18.603125Q121.525 19.978125 122.2125 20.7125Q122.91563 21.43125 123.94688 21.43125Q124.72813 21.43125 125.275 21.025Q125.82188 20.61875 126.13438 19.728125ZM121.525 17.446875L126.15 17.446875Q126.05625 16.4 125.61875 15.884375Q124.94688 15.071875 123.88438 15.071875Q122.91563 15.071875 122.24375 15.728125Q121.5875 16.36875 121.525 17.446875ZM129.4 25.603125L129.24374 24.275Q129.69687 24.4 130.04062 24.4Q130.50937 24.4 130.79062 24.24375Q131.07187 24.0875 131.25937 23.80625Q131.38437 23.603125 131.68124 22.759375Q131.72812 22.65 131.80624 22.415625L128.66562 14.103125L130.18124 14.103125L131.9 18.9Q132.24374 19.821875 132.50937 20.821875Q132.74374 19.853125 133.0875 18.93125L134.85312 14.103125L136.25937 14.103125L133.10312 22.540625Q132.60312 23.915625 132.32187 24.43125Q131.94687 25.11875 131.4625 25.446875Q130.97812 25.775 130.30624 25.775Q129.9 25.775 129.4 25.603125ZM136.9 19.915625L138.29062 19.696875Q138.4 20.540625 138.93124 20.99375Q139.47812 21.43125 140.43124 21.43125Q141.4 21.43125 141.86874 21.040625Q142.3375 20.634375 142.3375 20.103125Q142.3375 19.634375 141.93124 19.353125Q141.63437 19.165625 140.49374 18.884375Q138.94687 18.49375 138.3375 18.2125Q137.74374 17.915625 137.43124 17.415625Q137.13437 16.915625 137.13437 16.30625Q137.13437 15.74375 137.38437 15.275Q137.63437 14.80625 138.07187 14.49375Q138.4 14.24375 138.9625 14.0875Q139.54062 13.915625 140.18124 13.915625Q141.16562 13.915625 141.9 14.196875Q142.63437 14.478125 142.97812 14.9625Q143.3375 15.43125 143.47812 16.24375L142.10312 16.43125Q142.00937 15.790625 141.55624 15.43125Q141.10312 15.071875 140.29062 15.071875Q139.32187 15.071875 138.9 15.4Q138.49374 15.7125 138.49374 16.134375Q138.49374 16.415625 138.66562 16.634375Q138.8375 16.853125 139.19687 17.009375Q139.41562 17.0875 140.44687 17.36875Q141.93124 17.759375 142.525 18.025Q143.11874 18.275 143.44687 18.759375Q143.79062 19.24375 143.79062 19.9625Q143.79062 20.665625 143.36874 21.290625Q142.9625 21.9 142.18124 22.24375Q141.41562 22.5875 140.44687 22.5875Q138.82187 22.5875 137.97812 21.915625Q137.13437 21.24375 136.9 19.915625ZM152.15 25.775Q150.97812 24.30625 150.16562 22.3375Q149.36874 20.353125 149.36874 18.24375Q149.36874 16.384375 149.97812 14.68125Q150.68124 12.7125 152.15 10.74375L153.15 10.74375Q152.2125 12.36875 151.9 13.071875Q151.43124 14.15 151.15 15.321875Q150.82187 16.775 150.82187 18.259375Q150.82187 22.009375 153.15 25.775L152.15 25.775ZM158.57187 22.4L158.57187 19.65L153.60312 19.65L153.60312 18.36875L158.8375 10.946875L159.97812 10.946875L159.97812 18.36875L161.525 18.36875L161.525 19.65L159.97812 19.65L159.97812 22.4L158.57187 22.4ZM158.57187 18.36875L158.57187 13.196875L154.99374 18.36875L158.57187 18.36875ZM168.75937 22.4L167.44687 22.4L167.44687 10.946875L168.85312 10.946875L168.85312 15.025Q169.74374 13.915625 171.13437 13.915625Q171.9 13.915625 172.57187 14.228125Q173.25937 14.525 173.69687 15.0875Q174.15 15.65 174.4 16.446875Q174.65 17.228125 174.65 18.11875Q174.65 20.259375 173.5875 21.43125Q172.54062 22.5875 171.05624 22.5875Q169.5875 22.5875 168.75937 21.353125L168.75937 22.4ZM168.74374 18.18125Q168.74374 19.68125 169.15 20.3375Q169.80624 21.43125 170.94687 21.43125Q171.86874 21.43125 172.54062 20.634375Q173.2125 19.821875 173.2125 18.24375Q173.2125 16.61875 172.55624 15.853125Q171.91562 15.071875 171.00937 15.071875Q170.0875 15.071875 169.41562 15.86875Q168.74374 16.665625 168.74374 18.18125ZM176.4 25.603125L176.24374 24.275Q176.69687 24.4 177.04062 24.4Q177.50937 24.4 177.79062 24.24375Q178.07187 24.0875 178.25937 23.80625Q178.38437 23.603125 178.68124 22.759375Q178.72812 22.65 178.80624 22.415625L175.66562 14.103125L177.18124 14.103125L178.9 18.9Q179.24374 19.821875 179.50937 20.821875Q179.74374 19.853125 180.0875 18.93125L181.85312 14.103125L183.25937 14.103125L180.10312 22.540625Q179.60312 23.915625 179.32187 24.43125Q178.94687 25.11875 178.4625 25.446875Q177.97812 25.775 177.30624 25.775Q176.9 25.775 176.4 25.603125ZM187.525 21.134375L187.72812 22.384375Q187.13437 22.509375 186.66562 22.509375Q185.9 22.509375 185.47812 22.275Q185.05624 22.025 184.88437 21.634375Q184.7125 21.228125 184.7125 19.9625L184.7125 15.196875L183.68124 15.196875L183.68124 14.103125L184.7125 14.103125L184.7125 12.040625L186.11874 11.196875L186.11874 14.103125L187.525 14.103125L187.525 15.196875L186.11874 15.196875L186.11874 20.040625Q186.11874 20.65 186.18124 20.821875Q186.25937 20.99375 186.43124 21.103125Q186.60312 21.196875 186.91562 21.196875Q187.15 21.196875 187.525 21.134375ZM194.13437 19.728125L195.5875 19.9Q195.24374 21.18125 194.30624 21.884375Q193.38437 22.5875 191.94687 22.5875Q190.11874 22.5875 189.05624 21.4625Q187.99374 20.3375 187.99374 18.321875Q187.99374 16.228125 189.07187 15.071875Q190.15 13.915625 191.86874 13.915625Q193.525 13.915625 194.57187 15.05625Q195.63437 16.18125 195.63437 18.228125Q195.63437 18.353125 195.63437 18.603125L189.44687 18.603125Q189.525 19.978125 190.2125 20.7125Q190.91562 21.43125 191.94687 21.43125Q192.72812 21.43125 193.275 21.025Q193.82187 20.61875 194.13437 19.728125ZM189.525 17.446875L194.15 17.446875Q194.05624 16.4 193.61874 15.884375Q192.94687 15.071875 191.88437 15.071875Q190.91562 15.071875 190.24374 15.728125Q189.5875 16.36875 189.525 17.446875ZM201.4625 22.4L201.4625 10.946875L202.86874 10.946875L202.86874 17.478125L206.19687 14.103125L208.025 14.103125L204.85312 17.18125L208.3375 22.4L206.60312 22.4L203.86874 18.15L202.86874 19.103125L202.86874 22.4L201.4625 22.4ZM215.13437 19.728125L216.5875 19.9Q216.24374 21.18125 215.30624 21.884375Q214.38437 22.5875 212.94687 22.5875Q211.11874 22.5875 210.05624 21.4625Q208.99374 20.3375 208.99374 18.321875Q208.99374 16.228125 210.07187 15.071875Q211.15 13.915625 212.86874 13.915625Q214.525 13.915625 215.57187 15.05625Q216.63437 16.18125 216.63437 18.228125Q216.63437 18.353125 216.63437 18.603125L210.44687 18.603125Q210.525 19.978125 211.2125 20.7125Q211.91562 21.43125 212.94687 21.43125Q213.72812 21.43125 214.275 21.025Q214.82187 20.61875 215.13437 19.728125ZM210.525 17.446875L215.15 17.446875Q215.05624 16.4 214.61874 15.884375Q213.94687 15.071875 212.88437 15.071875Q211.91562 15.071875 211.24374 15.728125Q210.5875 16.36875 210.525 17.446875ZM218.4 25.603125L218.24374 24.275Q218.69687 24.4 219.04062 24.4Q219.50937 24.4 219.79062 24.24375Q220.07187 24.0875 220.25937 23.80625Q220.38437 23.603125 220.68124 22.759375Q220.72812 22.65 220.80624 22.415625L217.66562 14.103125L219.18124 14.103125L220.9 18.9Q221.24374 19.821875 221.50937 20.821875Q221.74374 19.853125 222.0875 18.93125L223.85312 14.103125L225.25937 14.103125L222.10312 22.540625Q221.60312 23.915625 221.32187 24.43125Q220.94687 25.11875 220.4625 25.446875Q219.97812 25.775 219.30624 25.775Q218.9 25.775 218.4 25.603125ZM226.82187 22.4L226.82187 20.790625L228.43124 20.790625L228.43124 22.4Q228.43124 23.290625 228.11874 23.821875Q227.80624 24.36875 227.11874 24.665625L226.72812 24.071875Q227.18124 23.86875 227.38437 23.49375Q227.60312 23.11875 227.61874 22.4L226.82187 22.4ZM241.4625 21.040625L241.4625 22.4L233.88437 22.4Q233.86874 21.884375 234.05624 21.415625Q234.3375 20.65 234.97812 19.9Q235.61874 19.15 236.82187 18.165625Q238.68124 16.634375 239.3375 15.74375Q239.99374 14.8375 239.99374 14.040625Q239.99374 13.2125 239.4 12.634375Q238.80624 12.05625 237.8375 12.05625Q236.82187 12.05625 236.2125 12.665625Q235.60312 13.275 235.60312 14.353125L234.15 14.2125Q234.30624 12.5875 235.275 11.74375Q236.24374 10.9 237.86874 10.9Q239.525 10.9 240.47812 11.821875Q241.44687 12.728125 241.44687 14.071875Q241.44687 14.759375 241.16562 15.43125Q240.88437 16.0875 240.22812 16.821875Q239.57187 17.55625 238.05624 18.8375Q236.79062 19.9 236.43124 20.290625Q236.07187 20.665625 235.8375 21.040625L241.4625 21.040625ZM245.22812 16.18125Q244.35312 15.86875 243.93124 15.275Q243.50937 14.68125 243.50937 13.853125Q243.50937 12.603125 244.4 11.759375Q245.30624 10.9 246.80624 10.9Q248.30624 10.9 249.2125 11.775Q250.13437 12.634375 250.13437 13.884375Q250.13437 14.68125 249.7125 15.275Q249.29062 15.86875 248.44687 16.18125Q249.49374 16.525 250.04062 17.290625Q250.60312 18.05625 250.60312 19.11875Q250.60312 20.5875 249.55624 21.603125Q248.525 22.603125 246.82187 22.603125Q245.13437 22.603125 244.0875 21.603125Q243.05624 20.5875 243.05624 19.0875Q243.05624 17.9625 243.61874 17.2125Q244.18124 16.4625 245.22812 16.18125ZM244.94687 13.80625Q244.94687 14.61875 245.4625 15.134375Q245.99374 15.65 246.8375 15.65Q247.65 15.65 248.16562 15.134375Q248.68124 14.61875 248.68124 13.884375Q248.68124 13.103125 248.15 12.5875Q247.61874 12.05625 246.82187 12.05625Q246.00937 12.05625 245.47812 12.571875Q244.94687 13.0875 244.94687 13.80625ZM244.49374 19.0875Q244.49374 19.696875 244.775 20.259375Q245.07187 20.821875 245.63437 21.134375Q246.19687 21.43125 246.8375 21.43125Q247.85312 21.43125 248.50937 20.790625Q249.16562 20.134375 249.16562 19.134375Q249.16562 18.11875 248.47812 17.4625Q247.80624 16.790625 246.79062 16.790625Q245.80624 16.790625 245.15 17.446875Q244.49374 18.103125 244.49374 19.0875ZM257.75937 22.4L256.44687 22.4L256.44687 10.946875L257.85312 10.946875L257.85312 15.025Q258.74374 13.915625 260.13437 13.915625Q260.9 13.915625 261.57187 14.228125Q262.25937 14.525 262.69687 15.0875Q263.15 15.65 263.4 16.446875Q263.65 17.228125 263.65 18.11875Q263.65 20.259375 262.5875 21.43125Q261.54062 22.5875 260.05624 22.5875Q258.5875 22.5875 257.75937 21.353125L257.75937 22.4ZM257.74374 18.18125Q257.74374 19.68125 258.15 20.3375Q258.80624 21.43125 259.94687 21.43125Q260.86874 21.43125 261.54062 20.634375Q262.2125 19.821875 262.2125 18.24375Q262.2125 16.61875 261.55624 15.853125Q260.91562 15.071875 260.00937 15.071875Q259.0875 15.071875 258.41562 15.86875Q257.74374 16.665625 257.74374 18.18125ZM265.4 25.603125L265.24374 24.275Q265.69687 24.4 266.04062 24.4Q266.50937 24.4 266.79062 24.24375Q267.07187 24.0875 267.25937 23.80625Q267.38437 23.603125 267.68124 22.759375Q267.72812 22.65 267.80624 22.415625L264.66562 14.103125L266.18124 14.103125L267.9 18.9Q268.24374 19.821875 268.50937 20.821875Q268.74374 19.853125 269.0875 18.93125L270.85312 14.103125L272.25937 14.103125L269.10312 22.540625Q268.60312 23.915625 268.32187 24.43125Q267.94687 25.11875 267.4625 25.446875Q266.97812 25.775 266.30624 25.775Q265.9 25.775 265.4 25.603125ZM276.525 21.134375L276.72812 22.384375Q276.13437 22.509375 275.66562 22.509375Q274.9 22.509375 274.47812 22.275Q274.05624 22.025 273.88437 21.634375Q273.7125 21.228125 273.7125 19.9625L273.7125 15.196875L272.68124 15.196875L272.68124 14.103125L273.7125 14.103125L273.7125 12.040625L275.11874 11.196875L275.11874 14.103125L276.525 14.103125L276.525 15.196875L275.11874 15.196875L275.11874 20.040625Q275.11874 20.65 275.18124 20.821875Q275.25937 20.99375 275.43124 21.103125Q275.60312 21.196875 275.91562 21.196875Q276.15 21.196875 276.525 21.134375ZM283.13437 19.728125L284.5875 19.9Q284.24374 21.18125 283.30624 21.884375Q282.38437 22.5875 280.94687 22.5875Q279.11874 22.5875 278.05624 21.4625Q276.99374 20.3375 276.99374 18.321875Q276.99374 16.228125 278.07187 15.071875Q279.15 13.915625 280.86874 13.915625Q282.525 13.915625 283.57187 15.05625Q284.63437 16.18125 284.63437 18.228125Q284.63437 18.353125 284.63437 18.603125L278.44687 18.603125Q278.525 19.978125 279.2125 20.7125Q279.91562 21.43125 280.94687 21.43125Q281.72812 21.43125 282.275 21.025Q282.82187 20.61875 283.13437 19.728125ZM278.525 17.446875L283.15 17.446875Q283.05624 16.4 282.61874 15.884375Q281.94687 15.071875 280.88437 15.071875Q279.91562 15.071875 279.24374 15.728125Q278.5875 16.36875 278.525 17.446875ZM292.75937 22.4L289.60312 14.103125L291.0875 14.103125L292.86874 19.071875Q293.16562 19.86875 293.4 20.74375Q293.5875 20.0875 293.93124 19.165625L295.775 14.103125L297.2125 14.103125L294.07187 22.4L292.75937 22.4ZM303.86874 21.36875Q303.0875 22.040625 302.36874 22.321875Q301.65 22.5875 300.82187 22.5875Q299.44687 22.5875 298.7125 21.915625Q297.97812 21.24375 297.97812 20.2125Q297.97812 19.603125 298.25937 19.103125Q298.54062 18.5875 298.97812 18.290625Q299.43124 17.978125 299.99374 17.821875Q300.41562 17.7125 301.24374 17.61875Q302.94687 17.415625 303.75937 17.134375Q303.75937 16.8375 303.75937 16.759375Q303.75937 15.9 303.36874 15.55625Q302.82187 15.071875 301.75937 15.071875Q300.775 15.071875 300.29062 15.43125Q299.82187 15.775 299.60312 16.65L298.22812 16.4625Q298.41562 15.5875 298.8375 15.040625Q299.275 14.49375 300.0875 14.2125Q300.9 13.915625 301.9625 13.915625Q303.025 13.915625 303.68124 14.165625Q304.35312 14.415625 304.66562 14.790625Q304.97812 15.165625 305.10312 15.74375Q305.18124 16.103125 305.18124 17.040625L305.18124 18.915625Q305.18124 20.884375 305.25937 21.4Q305.35312 21.915625 305.61874 22.4L304.15 22.4Q303.93124 21.9625 303.86874 21.36875ZM303.75937 18.228125Q302.99374 18.540625 301.4625 18.759375Q300.5875 18.884375 300.22812 19.040625Q299.86874 19.196875 299.66562 19.509375Q299.47812 19.80625 299.47812 20.165625Q299.47812 20.728125 299.9 21.103125Q300.3375 21.478125 301.15 21.478125Q301.9625 21.478125 302.5875 21.134375Q303.22812 20.775 303.525 20.15Q303.75937 19.68125 303.75937 18.74375L303.75937 18.228125ZM307.43124 22.4L307.43124 10.946875L308.8375 10.946875L308.8375 22.4L307.43124 22.4ZM316.9 22.4L316.9 21.18125Q315.93124 22.5875 314.25937 22.5875Q313.525 22.5875 312.88437 22.30625Q312.25937 22.025 311.94687 21.603125Q311.63437 21.165625 311.50937 20.55625Q311.43124 20.134375 311.43124 19.24375L311.43124 14.103125L312.8375 14.103125L312.8375 18.696875Q312.8375 19.80625 312.91562 20.18125Q313.05624 20.74375 313.47812 21.05625Q313.91562 21.36875 314.54062 21.36875Q315.18124 21.36875 315.72812 21.05625Q316.29062 20.728125 316.50937 20.165625Q316.74374 19.603125 316.74374 18.540625L316.74374 14.103125L318.15 14.103125L318.15 22.4L316.9 22.4ZM326.13437 19.728125L327.5875 19.9Q327.24374 21.18125 326.30624 21.884375Q325.38437 22.5875 323.94687 22.5875Q322.11874 22.5875 321.05624 21.4625Q319.99374 20.3375 319.99374 18.321875Q319.99374 16.228125 321.07187 15.071875Q322.15 13.915625 323.86874 13.915625Q325.525 13.915625 326.57187 15.05625Q327.63437 16.18125 327.63437 18.228125Q327.63437 18.353125 327.63437 18.603125L321.44687 18.603125Q321.525 19.978125 322.2125 20.7125Q322.91562 21.43125 323.94687 21.43125Q324.72812 21.43125 325.275 21.025Q325.82187 20.61875 326.13437 19.728125ZM321.525 17.446875L326.15 17.446875Q326.05624 16.4 325.61874 15.884375Q324.94687 15.071875 323.88437 15.071875Q322.91562 15.071875 322.24374 15.728125Q321.5875 16.36875 321.525 17.446875ZM329.82187 22.4L329.82187 20.790625L331.43124 20.790625L331.43124 22.4Q331.43124 23.290625 331.11874 23.821875Q330.80624 24.36875 330.11874 24.665625L329.72812 24.071875Q330.18124 23.86875 330.38437 23.49375Q330.60312 23.11875 330.61874 22.4L329.82187 22.4ZM336.9 19.915625L338.29062 19.696875Q338.4 20.540625 338.93124 20.99375Q339.47812 21.43125 340.43124 21.43125Q341.4 21.43125 341.86874 21.040625Q342.3375 20.634375 342.3375 20.103125Q342.3375 19.634375 341.93124 19.353125Q341.63437 19.165625 340.49374 18.884375Q338.94687 18.49375 338.3375 18.2125Q337.74374 17.915625 337.43124 17.415625Q337.13437 16.915625 337.13437 16.30625Q337.13437 15.74375 337.38437 15.275Q337.63437 14.80625 338.07187 14.49375Q338.4 14.24375 338.9625 14.0875Q339.54062 13.915625 340.18124 13.915625Q341.16562 13.915625 341.9 14.196875Q342.63437 14.478125 342.97812 14.9625Q343.3375 15.43125 343.47812 16.24375L342.10312 16.43125Q342.00937 15.790625 341.55624 15.43125Q341.10312 15.071875 340.29062 15.071875Q339.32187 15.071875 338.9 15.4Q338.49374 15.7125 338.49374 16.134375Q338.49374 16.415625 338.66562 16.634375Q338.8375 16.853125 339.19687 17.009375Q339.41562 17.0875 340.44687 17.36875Q341.93124 17.759375 342.525 18.025Q343.11874 18.275 343.44687 18.759375Q343.79062 19.24375 343.79062 19.9625Q343.79062 20.665625 343.36874 21.290625Q342.9625 21.9 342.18124 22.24375Q341.41562 22.5875 340.44687 22.5875Q338.82187 22.5875 337.97812 21.915625Q337.13437 21.24375 336.9 19.915625ZM345.4625 12.55625L345.4625 10.946875L346.86874 10.946875L346.86874 12.55625L345.4625 12.55625ZM345.4625 22.4L345.4625 14.103125L346.86874 14.103125L346.86874 22.4L345.4625 22.4ZM349.4625 22.4L349.4625 14.103125L350.72812 14.103125L350.72812 15.275Q351.63437 13.915625 353.36874 13.915625Q354.11874 13.915625 354.74374 14.18125Q355.36874 14.446875 355.68124 14.884375Q355.99374 15.321875 356.11874 15.93125Q356.19687 16.321875 356.19687 17.290625L356.19687 22.4L354.79062 22.4L354.79062 17.353125Q354.79062 16.49375 354.61874 16.071875Q354.4625 15.634375 354.04062 15.384375Q353.63437 15.134375 353.07187 15.134375Q352.16562 15.134375 351.50937 15.7125Q350.86874 16.275 350.86874 17.86875L350.86874 22.4L349.4625 22.4ZM358.19687 23.0875L359.57187 23.290625Q359.65 23.93125 360.04062 24.2125Q360.57187 24.603125 361.47812 24.603125Q362.44687 24.603125 362.97812 24.2125Q363.50937 23.821875 363.69687 23.11875Q363.80624 22.696875 363.80624 21.30625Q362.88437 22.4 361.50937 22.4Q359.79062 22.4 358.85312 21.165625Q357.91562 19.93125 357.91562 18.196875Q357.91562 17.009375 358.3375 16.009375Q358.775 15.009375 359.5875 14.4625Q360.41562 13.915625 361.50937 13.915625Q362.97812 13.915625 363.93124 15.103125L363.93124 14.103125L365.22812 14.103125L365.22812 21.275Q365.22812 23.2125 364.8375 24.025Q364.44687 24.8375 363.5875 25.30625Q362.72812 25.775 361.47812 25.775Q359.99374 25.775 359.07187 25.103125Q358.16562 24.43125 358.19687 23.0875ZM359.36874 18.103125Q359.36874 19.728125 360.00937 20.478125Q360.66562 21.228125 361.63437 21.228125Q362.60312 21.228125 363.25937 20.49375Q363.91562 19.74375 363.91562 18.15Q363.91562 16.61875 363.24374 15.853125Q362.57187 15.071875 361.61874 15.071875Q360.68124 15.071875 360.025 15.8375Q359.36874 16.603125 359.36874 18.103125ZM367.43124 22.4L367.43124 10.946875L368.8375 10.946875L368.8375 22.4L367.43124 22.4ZM377.13437 19.728125L378.5875 19.9Q378.24374 21.18125 377.30624 21.884375Q376.38437 22.5875 374.94687 22.5875Q373.11874 22.5875 372.05624 21.4625Q370.99374 20.3375 370.99374 18.321875Q370.99374 16.228125 372.07187 15.071875Q373.15 13.915625 374.86874 13.915625Q376.525 13.915625 377.57187 15.05625Q378.63437 16.18125 378.63437 18.228125Q378.63437 18.353125 378.63437 18.603125L372.44687 18.603125Q372.525 19.978125 373.2125 20.7125Q373.91562 21.43125 374.94687 21.43125Q375.72812 21.43125 376.275 21.025Q376.82187 20.61875 377.13437 19.728125ZM372.525 17.446875L377.15 17.446875Q377.05624 16.4 376.61874 15.884375Q375.94687 15.071875 374.88437 15.071875Q373.91562 15.071875 373.24374 15.728125Q372.5875 16.36875 372.525 17.446875ZM387.525 21.134375L387.72812 22.384375Q387.13437 22.509375 386.66562 22.509375Q385.9 22.509375 385.47812 22.275Q385.05624 22.025 384.88437 21.634375Q384.7125 21.228125 384.7125 19.9625L384.7125 15.196875L383.68124 15.196875L383.68124 14.103125L384.7125 14.103125L384.7125 12.040625L386.11874 11.196875L386.11874 14.103125L387.525 14.103125L387.525 15.196875L386.11874 15.196875L386.11874 20.040625Q386.11874 20.65 386.18124 20.821875Q386.25937 20.99375 386.43124 21.103125Q386.60312 21.196875 386.91562 21.196875Q387.15 21.196875 387.525 21.134375ZM388.4625 22.4L388.4625 10.946875L389.86874 10.946875L389.86874 15.05625Q390.85312 13.915625 392.35312 13.915625Q393.275 13.915625 393.94687 14.275Q394.63437 14.634375 394.91562 15.275Q395.2125 15.915625 395.2125 17.134375L395.2125 22.4L393.80624 22.4L393.80624 17.134375Q393.80624 16.0875 393.35312 15.603125Q392.9 15.11875 392.05624 15.11875Q391.43124 15.11875 390.88437 15.446875Q390.3375 15.775 390.10312 16.3375Q389.86874 16.884375 389.86874 17.853125L389.86874 22.4L388.4625 22.4ZM397.44687 22.4L397.44687 14.103125L398.7125 14.103125L398.7125 15.353125Q399.19687 14.478125 399.60312 14.196875Q400.00937 13.915625 400.50937 13.915625Q401.2125 13.915625 401.94687 14.36875L401.4625 15.665625Q400.94687 15.36875 400.43124 15.36875Q399.97812 15.36875 399.60312 15.65Q399.24374 15.915625 399.0875 16.415625Q398.85312 17.165625 398.85312 18.05625L398.85312 22.4L397.44687 22.4ZM408.13437 19.728125L409.5875 19.9Q409.24374 21.18125 408.30624 21.884375Q407.38437 22.5875 405.94687 22.5875Q404.11874 22.5875 403.05624 21.4625Q401.99374 20.3375 401.99374 18.321875Q401.99374 16.228125 403.07187 15.071875Q404.15 13.915625 405.86874 13.915625Q407.525 13.915625 408.57187 15.05625Q409.63437 16.18125 409.63437 18.228125Q409.63437 18.353125 409.63437 18.603125L403.44687 18.603125Q403.525 19.978125 404.2125 20.7125Q404.91562 21.43125 405.94687 21.43125Q406.72812 21.43125 407.275 21.025Q407.82187 20.61875 408.13437 19.728125ZM403.525 17.446875L408.15 17.446875Q408.05624 16.4 407.61874 15.884375Q406.94687 15.071875 405.88437 15.071875Q404.91562 15.071875 404.24374 15.728125Q403.5875 16.36875 403.525 17.446875ZM416.86874 21.36875Q416.0875 22.040625 415.36874 22.321875Q414.65 22.5875 413.82187 22.5875Q412.44687 22.5875 411.7125 21.915625Q410.97812 21.24375 410.97812 20.2125Q410.97812 19.603125 411.25937 19.103125Q411.54062 18.5875 411.97812 18.290625Q412.43124 17.978125 412.99374 17.821875Q413.41562 17.7125 414.24374 17.61875Q415.94687 17.415625 416.75937 17.134375Q416.75937 16.8375 416.75937 16.759375Q416.75937 15.9 416.36874 15.55625Q415.82187 15.071875 414.75937 15.071875Q413.775 15.071875 413.29062 15.43125Q412.82187 15.775 412.60312 16.65L411.22812 16.4625Q411.41562 15.5875 411.8375 15.040625Q412.275 14.49375 413.0875 14.2125Q413.9 13.915625 414.9625 13.915625Q416.025 13.915625 416.68124 14.165625Q417.35312 14.415625 417.66562 14.790625Q417.97812 15.165625 418.10312 15.74375Q418.18124 16.103125 418.18124 17.040625L418.18124 18.915625Q418.18124 20.884375 418.25937 21.4Q418.35312 21.915625 418.61874 22.4L417.15 22.4Q416.93124 21.9625 416.86874 21.36875ZM416.75937 18.228125Q415.99374 18.540625 414.4625 18.759375Q413.5875 18.884375 413.22812 19.040625Q412.86874 19.196875 412.66562 19.509375Q412.47812 19.80625 412.47812 20.165625Q412.47812 20.728125 412.9 21.103125Q413.3375 21.478125 414.15 21.478125Q414.9625 21.478125 415.5875 21.134375Q416.22812 20.775 416.525 20.15Q416.75937 19.68125 416.75937 18.74375L416.75937 18.228125ZM425.8375 22.4L425.8375 21.353125Q425.05624 22.5875 423.525 22.5875Q422.525 22.5875 421.69687 22.040625Q420.86874 21.49375 420.4 20.509375Q419.94687 19.525 419.94687 18.259375Q419.94687 17.009375 420.35312 16.009375Q420.775 14.99375 421.60312 14.4625Q422.43124 13.915625 423.4625 13.915625Q424.2125 13.915625 424.79062 14.228125Q425.38437 14.540625 425.74374 15.05625L425.74374 10.946875L427.15 10.946875L427.15 22.4L425.8375 22.4ZM421.4 18.259375Q421.4 19.853125 422.07187 20.65Q422.74374 21.43125 423.65 21.43125Q424.57187 21.43125 425.2125 20.68125Q425.86874 19.915625 425.86874 18.36875Q425.86874 16.665625 425.2125 15.86875Q424.55624 15.071875 423.5875 15.071875Q422.65 15.071875 422.025 15.8375Q421.4 16.603125 421.4 18.259375ZM435.13437 19.728125L436.5875 19.9Q436.24374 21.18125 435.30624 21.884375Q434.38437 22.5875 432.94687 22.5875Q431.11874 22.5875 430.05624 21.4625Q428.99374 20.3375 428.99374 18.321875Q428.99374 16.228125 430.07187 15.071875Q431.15 13.915625 432.86874 13.915625Q434.525 13.915625 435.57187 15.05625Q436.63437 16.18125 436.63437 18.228125Q436.63437 18.353125 436.63437 18.603125L430.44687 18.603125Q430.525 19.978125 431.2125 20.7125Q431.91562 21.43125 432.94687 21.43125Q433.72812 21.43125 434.275 21.025Q434.82187 20.61875 435.13437 19.728125ZM430.525 17.446875L435.15 17.446875Q435.05624 16.4 434.61874 15.884375Q433.94687 15.071875 432.88437 15.071875Q431.91562 15.071875 431.24374 15.728125Q430.5875 16.36875 430.525 17.446875ZM443.8375 22.4L443.8375 21.353125Q443.05624 22.5875 441.525 22.5875Q440.525 22.5875 439.69687 22.040625Q438.86874 21.49375 438.4 20.509375Q437.94687 19.525 437.94687 18.259375Q437.94687 17.009375 438.35312 16.009375Q438.775 14.99375 439.60312 14.4625Q440.43124 13.915625 441.4625 13.915625Q442.2125 13.915625 442.79062 14.228125Q443.38437 14.540625 443.74374 15.05625L443.74374 10.946875L445.15 10.946875L445.15 22.4L443.8375 22.4ZM439.4 18.259375Q439.4 19.853125 440.07187 20.65Q440.74374 21.43125 441.65 21.43125Q442.57187 21.43125 443.2125 20.68125Q443.86874 19.915625 443.86874 18.36875Q443.86874 16.665625 443.2125 15.86875Q442.55624 15.071875 441.5875 15.071875Q440.65 15.071875 440.025 15.8375Q439.4 16.603125 439.4 18.259375ZM448.38437 25.775L447.36874 25.775Q449.7125 22.009375 449.7125 18.259375Q449.7125 16.790625 449.36874 15.3375Q449.10312 14.165625 448.63437 13.0875Q448.32187 12.384375 447.36874 10.74375L448.38437 10.74375Q449.85312 12.7125 450.55624 14.68125Q451.15 16.384375 451.15 18.24375Q451.15 20.353125 450.3375 22.3375Q449.54062 24.30625 448.38437 25.775Z" fill-rule="nonzero"/></svg>